HIERARCHY
ROOT Hips
{
	OFFSET -0.179506 -22.333345 2.821913
	CHANNELS 6 Xposition Yposition Zposition Zrotation Yrotation Xrotation 
	JOINT LeftUpLeg
	{
		OFFSET 6.951974 -9.140623 -0.681533
		CHANNELS 3 Zrotation Yrotation Xrotation
		JOINT LeftLeg
		{
			OFFSET 3.427654 -37.519855 -0.449580
			CHANNELS 3 Zrotation Yrotation Xrotation
			JOINT LeftFoot
			{
				OFFSET -1.359570 -39.796059 -4.369333
				CHANNELS 3 Zrotation Yrotation Xrotation
				JOINT LeftToe
				{
					OFFSET 2.635814 -5.579078 11.928840
					CHANNELS 3 Zrotation Yrotation Xrotation
					End Site
					{
						OFFSET 0.000000 0.000000 0.000000
					}
				}
			}
		}
	}
	JOINT RightUpLeg
	{
		OFFSET -6.767048 -9.052170 -0.431982
		CHANNELS 3 Zrotation Yrotation Xrotation
		JOINT RightLeg
		{
			OFFSET -3.829005 -38.256897 -0.885003
			CHANNELS 3 Zrotation Yrotation Xrotation
			JOINT RightFoot
			{
				OFFSET 1.577377 -39.841461 -4.231180
				CHANNELS 3 Zrotation Yrotation Xrotation
				JOINT RightToe
				{
					OFFSET -2.537174 -4.814398 12.334795
					CHANNELS 3 Zrotation Yrotation Xrotation
					End Site
					{
						OFFSET 0.000000 0.000000 0.000000
					}
				}
			}
		}
	}
	JOINT Spine
	{
		OFFSET -0.253288 10.896323 -2.669631
		CHANNELS 3 Zrotation Yrotation Xrotation
		JOINT Spine1
		{
			OFFSET 0.548704 13.518043 0.109247
			CHANNELS 3 Zrotation Yrotation Xrotation
			JOINT Spine2
			{
				OFFSET 0.145701 5.292222 2.542457
				CHANNELS 3 Zrotation Yrotation Xrotation
				JOINT Neck
				{
					OFFSET -0.277840 21.387037 -4.285703
					CHANNELS 3 Zrotation Yrotation Xrotation
					JOINT Head
					{
						OFFSET 0.515184 6.496960 5.134897
						CHANNELS 3 Zrotation Yrotation Xrotation
						End Site
						{
							OFFSET 0.000000 0.000000 0.000000
						}
					}
				}
				JOINT LeftShoulder
				{
					OFFSET 7.884473 12.174932 -3.408961
					CHANNELS 3 Zrotation Yrotation Xrotation
					JOINT LeftArm
					{
						OFFSET 9.097692 3.046888 -0.886815
						CHANNELS 3 Zrotation Yrotation Xrotation
						JOINT LeftForeArm
						{
							OFFSET 25.961220 -1.277207 -2.745643
							CHANNELS 3 Zrotation Yrotation Xrotation
							JOINT LeftHand
							{
								OFFSET 24.923361 0.898606 -0.117091
								CHANNELS 3 Zrotation Yrotation Xrotation
								End Site
								{
									OFFSET 0.000000 0.000000 0.000000
								}
							}
						}
					}
				}
				JOINT RightShoulder
				{
					OFFSET -8.175920 11.883285 -3.861528
					CHANNELS 3 Zrotation Yrotation Xrotation
					JOINT RightArm
					{
						OFFSET -9.601238 3.255117 -0.914307
						CHANNELS 3 Zrotation Yrotation Xrotation
						JOINT RightForeArm
						{
							OFFSET -25.374195 -1.332924 -2.140099
							CHANNELS 3 Zrotation Yrotation Xrotation
							JOINT RightHand
							{
								OFFSET -25.529810 0.777228 -0.555919
								CHANNELS 3 Zrotation Yrotation Xrotation
								End Site
								{
									OFFSET 0.000000 0.000000 0.000000
								}
							}
						}
					}
				}
			}
		}
	}
}
MOTION
Frames: 12
Frame Time: 0.033333
44.378017 29.195498 103.655258 -66.333751 -0.717138 96.906963 11.714517 -2.276320 -42.024351 -0.885276 16.627321 33.498399 -4.630151 9.350508 -4.573330 nan nan nan -4.041657 -7.310341 10.572904 0.095251 9.891764 2.378152 16.546794 -0.274193 16.887870 nan nan nan -8.293160 15.480852 1.830791 2.189897 -0.819575 3.838711 1.879567 4.645261 -0.515495 1.627874 0.128673 17.215725 6.947231 -3.209879 3.161129 -0.342477 8.722175 -1.081262 -32.539452 -0.919147 -7.904877 12.289655 -30.761676 -14.023458 5.828138 -18.258794 -15.975305 3.737831 -2.113754 0.121551 33.033252 15.375459 -4.083152 -21.182457 51.655447 -18.731804 7.162399 18.546575 -28.943633 
42.971748 27.924614 104.311150 -67.139949 -0.361611 97.165008 11.808692 -1.947696 -40.806387 -1.147745 16.288729 29.609207 -5.289592 9.421642 -5.003866 nan nan nan -4.619886 -7.737684 11.122465 0.328492 7.938801 3.448262 16.738773 -1.019315 16.681932 nan nan nan -8.201149 15.550491 0.569261 2.220746 -0.495933 4.864430 1.791527 5.045307 -0.962573 1.704982 0.370118 18.286084 6.644706 -3.616356 2.814457 -0.122501 9.225958 -0.843793 -32.042288 0.367163 -8.119726 12.119443 -30.138820 -13.482942 4.668691 -18.185473 -15.354017 3.697684 -2.210034 0.513913 32.176146 15.028134 -4.457197 -20.043475 52.723077 -17.543899 6.923847 18.724112 -28.806063 
41.575893 26.637001 104.862953 -67.925872 0.075343 97.197405 11.840749 -1.560710 -39.413515 -1.335743 15.638759 25.913108 -5.867661 9.599804 -5.753343 nan nan nan -5.172309 -8.065448 11.869888 0.502514 6.551903 4.739320 16.501373 -1.628059 16.341755 nan nan nan -7.908194 15.609189 -0.455465 2.258967 -0.129231 5.798190 1.760862 5.511381 -1.093056 1.795583 0.512483 18.878386 6.203176 -3.937610 2.720836 -0.039254 9.808371 -0.924505 -31.766808 1.502152 -8.178789 12.161588 -29.684731 -12.889590 4.094838 -17.657761 -14.779104 3.749862 -2.412046 0.575489 31.171605 14.543322 -4.714878 -18.764082 53.965125 -16.234140 5.956429 18.642342 -28.993076 
40.181091 25.302727 105.314659 -68.603319 0.495633 97.062199 11.665720 -1.189482 -37.929853 -1.347312 14.706601 22.339333 -6.240177 9.823058 -6.526411 nan nan nan -5.774273 -8.399980 12.818847 0.520607 5.795758 6.051321 16.245209 -2.041274 16.116413 nan nan nan -7.352826 15.611009 -1.202505 2.234958 0.187226 6.621489 1.628281 5.857174 -1.038082 1.819267 0.693543 19.226150 5.754998 -4.212415 2.658521 0.004966 10.596439 -1.165835 -31.535040 2.565217 -8.283675 12.277778 -29.239595 -12.553163 3.116834 -16.719135 -15.096304 3.780941 -2.736009 0.419075 30.336150 14.076736 -4.477549 -17.491356 55.438692 -15.002712 4.800568 18.494412 -29.880068 
38.792027 23.949387 105.683472 -69.379002 0.949631 96.795043 11.508564 -0.734812 -36.285940 -1.254003 13.811189 18.776607 -6.188409 9.895200 -6.937430 nan nan nan -6.471033 -8.670934 13.849287 0.570037 5.726335 7.432255 16.029564 -2.199677 15.949952 nan nan nan -6.651731 15.651015 -1.782068 2.224820 0.527593 7.370192 1.424313 6.126489 -0.905093 1.832597 0.916461 19.360278 5.389825 -4.460386 2.852360 0.108730 11.533543 -1.619263 -31.496114 3.439438 -8.694942 12.660953 -28.486662 -12.919291 0.623282 -15.876468 -14.617309 3.697332 -3.144547 0.279247 30.159479 13.403514 -3.862590 -18.329971 56.227444 -15.230949 7.010510 17.728725 -28.216108 
37.408325 22.634501 105.990204 -70.165413 1.641150 96.355566 11.359296 0.229101 -34.592765 -0.972523 12.393559 15.577651 -6.555977 9.495358 -7.347818 nan nan nan -7.026299 -9.177631 14.995051 0.601146 6.275436 8.887013 15.872148 -1.970219 15.664964 nan nan nan -5.562192 15.634100 -1.869791 2.141878 1.007350 7.649592 1.425442 6.323934 -0.548081 1.767480 1.244128 19.328988 4.824061 -4.688236 3.330206 -0.259602 12.335639 -2.092857 -31.084262 4.789440 -9.422075 12.190536 -28.113451 -11.812053 0.013955 -16.122925 -14.239465 4.255263 -2.938314 0.344472 28.025600 13.694930 -5.116719 -14.234298 58.275098 -12.185217 3.985749 19.547486 -30.355904 
35.988110 21.329716 106.232124 -70.958455 2.255769 95.859405 11.247601 1.190355 -32.831063 -0.710760 10.982204 12.515187 -6.837168 9.101310 -7.883612 nan nan nan -7.803584 -9.709377 16.197784 0.776255 7.434573 10.444229 15.653580 -1.740970 15.096610 nan nan nan -4.723422 15.748588 -2.056433 2.140952 1.387704 8.082621 1.489820 6.526111 -0.240333 1.568579 1.218616 19.462404 4.527576 -4.706378 3.659859 -0.378355 12.910990 -2.344398 -31.011901 6.353901 -10.012668 11.861157 -27.990489 -11.476259 -0.219501 -16.048765 -13.099773 4.108938 -2.843265 0.639709 27.452148 12.764111 -5.635664 -13.227685 59.767563 -11.341667 4.083689 19.984844 -29.282539 
34.566372 19.999054 106.396599 -71.731943 2.820067 95.270029 11.030983 2.247531 -31.155209 -0.320817 9.603701 9.874605 -7.128886 8.884179 -8.271473 nan nan nan -8.741024 -10.203488 17.483067 0.987357 8.770482 12.014440 15.627588 -1.472884 14.729910 nan nan nan -3.838278 15.848672 -2.066115 2.170297 1.760248 8.416552 1.481073 6.676679 -0.013528 1.386376 1.039214 19.745187 4.170890 -4.735742 4.063992 -0.417095 13.521070 -2.410260 -30.848681 7.782064 -10.477400 11.287523 -27.681527 -11.294837 -0.612547 -15.698474 -12.995520 3.970688 -2.917735 0.876513 27.099769 11.963022 -5.750234 -12.499296 61.303210 -11.261944 3.315999 19.695458 -29.329164 
33.132969 18.676052 106.474998 -72.357821 3.380785 94.628658 10.851580 3.249829 -29.533599 0.185548 8.185020 7.500639 -7.386480 8.553673 -8.167231 nan nan nan -9.718867 -10.763795 18.920953 1.120713 9.756815 13.367479 15.475678 -0.922719 14.612453 nan nan nan -3.011912 15.873660 -2.065308 2.247006 1.995266 8.756501 1.493529 6.923508 0.198813 1.278209 1.096766 20.001131 3.977965 -4.831788 4.479233 -0.130607 14.228464 -2.552557 -31.014802 8.902796 -11.183141 11.007589 -27.050016 -11.257188 -2.048114 -15.629054 -13.682940 3.821273 -3.099967 1.053115 26.845780 11.301754 -6.017057 -11.858541 62.390849 -10.694356 4.158182 19.879308 -28.816665 
31.702820 17.365973 106.470825 -72.909694 3.934858 93.932790 10.781726 4.188277 -27.974619 0.695238 6.893621 5.390089 -7.807260 8.477500 -7.968962 nan nan nan -10.795484 -11.357411 20.439704 1.196905 10.690684 14.553665 15.583727 -0.304455 14.700391 nan nan nan -2.240725 15.923432 -2.064848 2.377838 2.139225 9.031439 1.629134 7.212288 0.547479 1.082903 1.233646 20.335465 3.871469 -4.839643 4.773942 0.196953 14.790418 -2.637829 -31.435970 10.074982 -11.638607 10.665541 -26.736783 -11.391162 -1.589629 -15.040600 -14.402389 3.694797 -3.267097 1.053029 26.331686 10.566003 -6.370055 -10.338189 63.609066 -9.465785 4.279975 20.028233 -28.350648 
30.271351 16.035830 106.383766 -73.447423 4.397813 93.335415 10.673405 5.062851 -26.555035 1.235010 5.790237 3.494618 -8.282438 8.539884 -7.858725 nan nan nan -12.027357 -11.863065 21.866017 1.317778 11.773104 15.570196 16.033017 0.163573 15.084929 nan nan nan -1.649587 16.009575 -2.303143 2.617612 2.280700 9.363188 1.792513 7.414900 0.947507 1.050161 1.409602 20.652470 3.561781 -4.942869 5.100995 0.518418 15.660334 -2.766937 -31.822491 10.929044 -11.817441 9.849662 -26.576840 -11.101208 0.145346 -14.217301 -15.444167 3.651212 -3.832199 0.778181 25.758882 10.180034 -6.370399 -8.232018 64.756329 -7.790653 2.877909 19.619909 -28.654144 
28.837452 14.690029 106.221146 -73.887741 4.816474 92.851583 10.623824 5.688301 -25.307257 1.759392 4.806014 1.928856 -8.324671 8.663672 -7.875827 nan nan nan -13.269299 -12.157896 23.243979 1.507943 12.675493 16.361228 16.642421 0.545167 15.713056 nan nan nan -1.125625 16.087753 -2.662254 2.880999 2.391084 9.551342 1.917032 7.524688 1.400303 1.152539 1.422881 21.028366 3.154962 -5.004765 5.454092 0.969066 16.708822 -2.911266 -32.290276 11.450751 -12.170019 9.523766 -26.015563 -10.912689 0.760499 -13.698756 -15.628757 3.544685 -4.750776 0.288239 25.577213 10.041471 -6.297774 -6.202701 65.455854 -5.929278 3.145855 19.279814 -27.755107 
